<svg width="296" height="346" viewBox="0 0 296 346" fill="none" xmlns="http://www.w3.org/2000/svg">
<g filter="url(#filter0_d_3_53)">
<rect x="2.5" y="2.5" width="287" height="337" rx="4.5" stroke="#ABABAB" shape-rendering="crispEdges"/>
<g clip-path="url(#clip0_3_53)">
<path d="M2 2H290V202H2V2Z" fill="#E7E7E7"/>
<g filter="url(#filter1_d_3_53)">
<path d="M186.686 57.3735L186.346 57.0666C181.213 52.5649 173.395 53.0764 168.908 58.2261L140.796 90.4543C139.573 91.8867 139.709 94.0353 141.102 95.263C142.53 96.4907 144.671 96.3543 145.895 94.9561L174.041 62.762C176.046 60.4429 179.581 60.2042 181.893 62.2504L182.233 62.5573C183.355 63.5464 184.034 64.9105 184.136 66.377C184.238 67.8776 183.762 69.3099 182.777 70.4353L148.173 110.098L136.921 100.208C135.494 98.9803 133.352 99.1167 132.128 100.515L123.12 110.814C123.12 110.814 122.985 111.087 122.917 111.19C118.973 111.531 113.671 112.895 110.17 117.294C106.974 121.284 106.192 126.639 106.022 129.435C105.92 131.106 106.022 132.334 106.124 133.289C106.226 134.278 106.26 134.892 106.09 135.813C105.683 137.927 104.357 139.973 102.181 141.849C101.298 142.599 100.89 143.759 101.026 144.884C101.196 146.044 101.909 147.033 102.963 147.51C107.348 149.556 111.937 150.545 116.39 150.545C124.004 150.545 131.109 147.613 135.8 142.054C139.709 137.415 140.898 132.095 141.204 128.037C141.51 127.866 141.816 127.662 142.088 127.389L151.096 117.09L187.943 74.8689C192.43 69.7192 191.921 61.8753 186.788 57.3735H186.686ZM130.565 137.688C126.01 143.111 118.09 145.021 110.237 142.974C111.461 141.133 112.311 139.189 112.719 137.143C113.093 135.267 112.957 133.869 112.855 132.675C112.787 131.822 112.719 131.038 112.787 129.844C112.991 126.434 113.977 123.399 115.438 121.523C118.26 118.01 123.698 117.772 126.01 117.84L134.44 125.24C134.542 128.241 134.1 133.459 130.565 137.62V137.688ZM139.165 120.363L130.463 112.724L134.984 107.54L143.686 115.18L139.165 120.363Z" fill="url(#paint0_linear_3_53)"/>
</g>
<g filter="url(#filter2_f_3_53)">
<path d="M383.928 50.182C381.365 73.8565 339.668 62.7177 337.34 87.0876C333.406 128.239 306.228 129.796 286.831 122.836C267.434 115.87 254.219 98.6941 262.531 71.7641C270.843 44.8403 312.441 26.5014 337.803 25.1106C363.166 23.7198 385.496 35.6401 383.921 50.182H383.928Z" fill="url(#paint1_linear_3_53)"/>
</g>
<g filter="url(#filter3_f_3_53)">
<path d="M346.678 242.92C342.528 281.39 275.008 263.29 271.238 302.89C264.868 369.76 220.858 372.29 189.448 360.98C158.038 349.66 136.638 321.75 150.098 277.99C163.558 234.24 230.918 204.44 271.988 202.18C313.058 199.92 349.218 219.29 346.668 242.92H346.678Z" fill="url(#paint2_linear_3_53)"/>
</g>
<g filter="url(#filter4_f_3_53)">
<path d="M-91.3036 367.225C-113.677 335.657 -51.1053 304.491 -74.5121 272.327C-114.035 218.012 -82.7407 186.965 -51.7182 174.631C-20.6891 162.306 13.8304 169.039 32.7335 210.738C51.6301 252.429 20.9071 319.373 -8.36344 348.271C-37.6339 377.169 -77.5539 386.61 -91.2961 367.219L-91.3036 367.225Z" fill="url(#paint3_linear_3_53)"/>
</g>
<g filter="url(#filter5_f_3_53)">
<path d="M10.6781 42.9197C6.52814 81.3897 -60.9919 63.2897 -64.7619 102.89C-71.1319 169.76 -115.142 172.29 -146.552 160.98C-177.962 149.66 -199.362 121.75 -185.902 77.9897C-172.442 34.2397 -105.082 4.43966 -64.0119 2.17966C-22.9419 -0.0803406 13.2181 19.2897 10.6681 42.9197H10.6781Z" fill="url(#paint4_linear_3_53)"/>
</g>
</g>
<path d="M290 201.5H2V202.5H290V201.5Z" fill="#D2D2D2"/>
<path d="M115.326 247V232.996H120.287C125.261 232.996 127.748 235.271 127.748 239.822C127.748 242.003 127.068 243.745 125.707 245.047C124.353 246.349 122.546 247 120.287 247H115.326ZM118.48 235.564V244.441H120.043C121.41 244.441 122.481 244.031 123.256 243.211C124.037 242.391 124.428 241.274 124.428 239.861C124.428 238.527 124.04 237.479 123.266 236.717C122.497 235.949 121.417 235.564 120.023 235.564H118.48ZM138.754 242.879H132.23C132.335 244.331 133.249 245.057 134.975 245.057C136.075 245.057 137.042 244.796 137.875 244.275V246.502C136.951 246.997 135.749 247.244 134.271 247.244C132.657 247.244 131.404 246.798 130.512 245.906C129.62 245.008 129.174 243.758 129.174 242.156C129.174 240.496 129.656 239.181 130.619 238.211C131.583 237.241 132.768 236.756 134.174 236.756C135.632 236.756 136.758 237.189 137.553 238.055C138.354 238.921 138.754 240.096 138.754 241.58V242.879ZM135.893 240.984C135.893 239.552 135.313 238.836 134.154 238.836C133.66 238.836 133.23 239.041 132.865 239.451C132.507 239.861 132.289 240.372 132.211 240.984H135.893ZM139.936 246.736V244.236C140.443 244.542 140.948 244.77 141.449 244.92C141.957 245.07 142.436 245.145 142.885 245.145C143.432 245.145 143.861 245.07 144.174 244.92C144.493 244.77 144.652 244.542 144.652 244.236C144.652 244.041 144.581 243.878 144.438 243.748C144.294 243.618 144.109 243.504 143.881 243.406C143.66 243.309 143.415 243.221 143.148 243.143C142.882 243.064 142.624 242.977 142.377 242.879C141.98 242.729 141.628 242.57 141.322 242.4C141.023 242.225 140.769 242.023 140.561 241.795C140.359 241.567 140.202 241.303 140.092 241.004C139.988 240.704 139.936 240.35 139.936 239.939C139.936 239.38 140.056 238.898 140.297 238.494C140.544 238.09 140.87 237.762 141.273 237.508C141.684 237.247 142.149 237.059 142.67 236.941C143.197 236.818 143.744 236.756 144.311 236.756C144.753 236.756 145.202 236.792 145.658 236.863C146.114 236.928 146.563 237.026 147.006 237.156V239.539C146.615 239.311 146.195 239.142 145.746 239.031C145.303 238.914 144.867 238.855 144.438 238.855C144.236 238.855 144.044 238.875 143.861 238.914C143.686 238.947 143.529 238.999 143.393 239.07C143.256 239.135 143.148 239.223 143.07 239.334C142.992 239.438 142.953 239.559 142.953 239.695C142.953 239.878 143.012 240.034 143.129 240.164C143.246 240.294 143.399 240.408 143.588 240.506C143.777 240.597 143.985 240.682 144.213 240.76C144.447 240.831 144.678 240.906 144.906 240.984C145.316 241.128 145.688 241.284 146.02 241.453C146.352 241.622 146.635 241.821 146.869 242.049C147.11 242.277 147.292 242.544 147.416 242.85C147.546 243.156 147.611 243.52 147.611 243.943C147.611 244.536 147.481 245.044 147.221 245.467C146.967 245.883 146.625 246.225 146.195 246.492C145.772 246.753 145.281 246.941 144.721 247.059C144.167 247.182 143.591 247.244 142.992 247.244C141.892 247.244 140.873 247.075 139.936 246.736ZM150.961 235.418C150.44 235.418 150.014 235.265 149.682 234.959C149.35 234.646 149.184 234.266 149.184 233.816C149.184 233.354 149.35 232.977 149.682 232.684C150.014 232.391 150.44 232.244 150.961 232.244C151.488 232.244 151.915 232.391 152.24 232.684C152.572 232.977 152.738 233.354 152.738 233.816C152.738 234.285 152.572 234.669 152.24 234.969C151.915 235.268 151.488 235.418 150.961 235.418ZM152.484 247H149.398V237H152.484V247ZM164.887 245.857C164.887 247.713 164.35 249.148 163.275 250.164C162.201 251.186 160.645 251.697 158.607 251.697C157.26 251.697 156.192 251.505 155.404 251.121V248.523C156.433 249.122 157.471 249.422 158.52 249.422C159.561 249.422 160.368 249.145 160.941 248.592C161.514 248.045 161.801 247.299 161.801 246.355V245.564H161.762C161.059 246.684 160.02 247.244 158.646 247.244C157.37 247.244 156.358 246.795 155.609 245.896C154.861 244.998 154.486 243.794 154.486 242.283C154.486 240.59 154.903 239.246 155.736 238.25C156.57 237.254 157.667 236.756 159.027 236.756C160.245 236.756 161.156 237.225 161.762 238.162H161.801V237H164.887V245.857ZM161.84 242.195V241.404C161.84 240.773 161.651 240.236 161.273 239.793C160.902 239.344 160.417 239.119 159.818 239.119C159.135 239.119 158.598 239.386 158.207 239.92C157.816 240.454 157.621 241.206 157.621 242.176C157.621 243.009 157.807 243.67 158.178 244.158C158.549 244.64 159.057 244.881 159.701 244.881C160.339 244.881 160.854 244.637 161.244 244.148C161.641 243.654 161.84 243.003 161.84 242.195ZM177.123 247H174.047V241.443C174.047 239.894 173.493 239.119 172.387 239.119C171.853 239.119 171.413 239.324 171.068 239.734C170.723 240.145 170.551 240.665 170.551 241.297V247H167.465V237H170.551V238.582H170.59C171.326 237.365 172.396 236.756 173.803 236.756C176.016 236.756 177.123 238.13 177.123 240.877V247Z" fill="#3A3A3A"/>
<path d="M43.7266 274.531C42.8984 274.969 41.8672 275.188 40.6328 275.188C39.0391 275.188 37.763 274.674 36.8047 273.648C35.8464 272.622 35.3672 271.276 35.3672 269.609C35.3672 267.818 35.9062 266.37 36.9844 265.266C38.0625 264.161 39.4297 263.609 41.0859 263.609C42.1484 263.609 43.0286 263.763 43.7266 264.07V265.469C42.9245 265.021 42.0391 264.797 41.0703 264.797C39.7839 264.797 38.7396 265.227 37.9375 266.086C37.1406 266.945 36.7422 268.094 36.7422 269.531C36.7422 270.896 37.1146 271.984 37.8594 272.797C38.6094 273.604 39.5911 274.008 40.8047 274.008C41.9297 274.008 42.9036 273.758 43.7266 273.258V274.531ZM50.0078 268.297C49.7839 268.125 49.4609 268.039 49.0391 268.039C48.4922 268.039 48.0339 268.297 47.6641 268.812C47.2995 269.328 47.1172 270.031 47.1172 270.922V275H45.8359V267H47.1172V268.648H47.1484C47.3307 268.086 47.6094 267.648 47.9844 267.336C48.3594 267.018 48.7786 266.859 49.2422 266.859C49.5755 266.859 49.8307 266.896 50.0078 266.969V268.297ZM52.0547 264.969C51.8255 264.969 51.6302 264.891 51.4688 264.734C51.3073 264.578 51.2266 264.38 51.2266 264.141C51.2266 263.901 51.3073 263.703 51.4688 263.547C51.6302 263.385 51.8255 263.305 52.0547 263.305C52.2891 263.305 52.487 263.385 52.6484 263.547C52.8151 263.703 52.8984 263.901 52.8984 264.141C52.8984 264.37 52.8151 264.565 52.6484 264.727C52.487 264.888 52.2891 264.969 52.0547 264.969ZM52.6797 275H51.3984V267H52.6797V275ZM61 275H59.7188V273.75H59.6875C59.1302 274.708 58.3099 275.188 57.2266 275.188C56.4297 275.188 55.8047 274.977 55.3516 274.555C54.9036 274.133 54.6797 273.573 54.6797 272.875C54.6797 271.38 55.5599 270.51 57.3203 270.266L59.7188 269.93C59.7188 268.57 59.1693 267.891 58.0703 267.891C57.1068 267.891 56.237 268.219 55.4609 268.875V267.562C56.2474 267.062 57.1536 266.812 58.1797 266.812C60.0599 266.812 61 267.807 61 269.797V275ZM59.7188 270.953L57.7891 271.219C57.1953 271.302 56.7474 271.451 56.4453 271.664C56.1432 271.872 55.9922 272.245 55.9922 272.781C55.9922 273.172 56.1302 273.492 56.4062 273.742C56.6875 273.987 57.0599 274.109 57.5234 274.109C58.1589 274.109 58.6823 273.888 59.0938 273.445C59.5104 272.997 59.7188 272.432 59.7188 271.75V270.953ZM68.8672 274.633C68.2526 275.003 67.5234 275.188 66.6797 275.188C65.5391 275.188 64.6172 274.818 63.9141 274.078C63.2161 273.333 62.8672 272.37 62.8672 271.188C62.8672 269.87 63.2448 268.812 64 268.016C64.7552 267.214 65.763 266.812 67.0234 266.812C67.7266 266.812 68.3464 266.943 68.8828 267.203V268.516C68.2891 268.099 67.6536 267.891 66.9766 267.891C66.1589 267.891 65.487 268.185 64.9609 268.773C64.4401 269.357 64.1797 270.125 64.1797 271.078C64.1797 272.016 64.4245 272.755 64.9141 273.297C65.4089 273.839 66.0703 274.109 66.8984 274.109C67.5964 274.109 68.2526 273.878 68.8672 273.414V274.633ZM68.1953 277C68.1953 277.917 67.4792 278.375 66.0469 278.375C65.849 278.375 65.6797 278.37 65.5391 278.359V277.656C65.763 277.688 65.9453 277.703 66.0859 277.703C66.8203 277.703 67.1875 277.469 67.1875 277C67.1875 276.594 66.8516 276.391 66.1797 276.391C66.1276 276.391 66.0208 276.401 65.8594 276.422V275H66.7031V275.812C67.1615 275.812 67.5234 275.917 67.7891 276.125C68.0599 276.333 68.1953 276.625 68.1953 277ZM76.5312 275H75.25V273.75H75.2188C74.6615 274.708 73.8411 275.188 72.7578 275.188C71.9609 275.188 71.3359 274.977 70.8828 274.555C70.4349 274.133 70.2109 273.573 70.2109 272.875C70.2109 271.38 71.0911 270.51 72.8516 270.266L75.25 269.93C75.25 268.57 74.7005 267.891 73.6016 267.891C72.638 267.891 71.7682 268.219 70.9922 268.875V267.562C71.7786 267.062 72.6849 266.812 73.7109 266.812C75.5911 266.812 76.5312 267.807 76.5312 269.797V275ZM75.25 270.953L73.3203 271.219C72.7266 271.302 72.2786 271.451 71.9766 271.664C71.6745 271.872 71.5234 272.245 71.5234 272.781C71.5234 273.172 71.6615 273.492 71.9375 273.742C72.2188 273.987 72.5911 274.109 73.0547 274.109C73.6901 274.109 74.2135 273.888 74.625 273.445C75.0417 272.997 75.25 272.432 75.25 271.75V270.953ZM76.1016 263.609C76.1016 264.156 75.9766 264.604 75.7266 264.953C75.4766 265.297 75.138 265.469 74.7109 265.469C74.3411 265.469 73.9193 265.333 73.4453 265.062C73.0443 264.839 72.7344 264.727 72.5156 264.727C72.0573 264.727 71.8281 265.021 71.8281 265.609H71.0938C71.0938 265.052 71.2188 264.607 71.4688 264.273C71.7188 263.935 72.0677 263.766 72.5156 263.766C72.8542 263.766 73.2422 263.901 73.6797 264.172C74.0651 264.401 74.3984 264.516 74.6797 264.516C75.1172 264.516 75.3359 264.214 75.3359 263.609H76.1016ZM82.2891 275.188C81.1068 275.188 80.1615 274.815 79.4531 274.07C78.75 273.32 78.3984 272.328 78.3984 271.094C78.3984 269.75 78.7656 268.701 79.5 267.945C80.2344 267.19 81.2266 266.812 82.4766 266.812C83.6693 266.812 84.599 267.18 85.2656 267.914C85.9375 268.648 86.2734 269.667 86.2734 270.969C86.2734 272.245 85.9115 273.268 85.1875 274.039C84.4688 274.805 83.5026 275.188 82.2891 275.188ZM82.3828 267.891C81.5599 267.891 80.9089 268.172 80.4297 268.734C79.9505 269.292 79.7109 270.062 79.7109 271.047C79.7109 271.995 79.9531 272.742 80.4375 273.289C80.9219 273.836 81.5703 274.109 82.3828 274.109C83.2109 274.109 83.8464 273.841 84.2891 273.305C84.737 272.768 84.9609 272.005 84.9609 271.016C84.9609 270.016 84.737 269.245 84.2891 268.703C83.8464 268.161 83.2109 267.891 82.3828 267.891ZM99 267L95.8125 275H94.5547L91.5234 267H92.9297L94.9609 272.812C95.112 273.24 95.2057 273.612 95.2422 273.93H95.2734C95.3255 273.529 95.4089 273.167 95.5234 272.844L97.6484 267H99ZM101.039 264.969C100.81 264.969 100.615 264.891 100.453 264.734C100.292 264.578 100.211 264.38 100.211 264.141C100.211 263.901 100.292 263.703 100.453 263.547C100.615 263.385 100.81 263.305 101.039 263.305C101.273 263.305 101.471 263.385 101.633 263.547C101.799 263.703 101.883 263.901 101.883 264.141C101.883 264.37 101.799 264.565 101.633 264.727C101.471 264.888 101.273 264.969 101.039 264.969ZM101.664 275H100.383V267H101.664V275ZM103.773 274.711V273.336C104.471 273.852 105.24 274.109 106.078 274.109C107.203 274.109 107.766 273.734 107.766 272.984C107.766 272.771 107.716 272.591 107.617 272.445C107.523 272.294 107.393 272.161 107.227 272.047C107.065 271.932 106.872 271.831 106.648 271.742C106.43 271.648 106.193 271.552 105.938 271.453C105.583 271.312 105.271 271.172 105 271.031C104.734 270.885 104.51 270.724 104.328 270.547C104.151 270.365 104.016 270.159 103.922 269.93C103.833 269.701 103.789 269.432 103.789 269.125C103.789 268.75 103.875 268.419 104.047 268.133C104.219 267.841 104.448 267.599 104.734 267.406C105.021 267.208 105.346 267.06 105.711 266.961C106.081 266.862 106.461 266.812 106.852 266.812C107.544 266.812 108.164 266.932 108.711 267.172V268.469C108.122 268.083 107.445 267.891 106.68 267.891C106.44 267.891 106.224 267.919 106.031 267.977C105.839 268.029 105.672 268.104 105.531 268.203C105.396 268.302 105.289 268.422 105.211 268.562C105.138 268.698 105.102 268.849 105.102 269.016C105.102 269.224 105.138 269.398 105.211 269.539C105.289 269.68 105.401 269.805 105.547 269.914C105.693 270.023 105.87 270.122 106.078 270.211C106.286 270.299 106.523 270.396 106.789 270.5C107.143 270.635 107.461 270.776 107.742 270.922C108.023 271.062 108.263 271.224 108.461 271.406C108.659 271.583 108.81 271.789 108.914 272.023C109.023 272.258 109.078 272.536 109.078 272.859C109.078 273.255 108.99 273.599 108.812 273.891C108.641 274.182 108.409 274.424 108.117 274.617C107.826 274.81 107.49 274.953 107.109 275.047C106.729 275.141 106.331 275.188 105.914 275.188C105.091 275.188 104.378 275.029 103.773 274.711ZM117.523 275H116.242V273.734H116.211C115.68 274.703 114.857 275.188 113.742 275.188C111.836 275.188 110.883 274.052 110.883 271.781V267H112.156V271.578C112.156 273.266 112.802 274.109 114.094 274.109C114.719 274.109 115.232 273.88 115.633 273.422C116.039 272.958 116.242 272.354 116.242 271.609V267H117.523V275ZM125.844 275H124.562V273.75H124.531C123.974 274.708 123.154 275.188 122.07 275.188C121.273 275.188 120.648 274.977 120.195 274.555C119.747 274.133 119.523 273.573 119.523 272.875C119.523 271.38 120.404 270.51 122.164 270.266L124.562 269.93C124.562 268.57 124.013 267.891 122.914 267.891C121.951 267.891 121.081 268.219 120.305 268.875V267.562C121.091 267.062 121.997 266.812 123.023 266.812C124.904 266.812 125.844 267.807 125.844 269.797V275ZM124.562 270.953L122.633 271.219C122.039 271.302 121.591 271.451 121.289 271.664C120.987 271.872 120.836 272.245 120.836 272.781C120.836 273.172 120.974 273.492 121.25 273.742C121.531 273.987 121.904 274.109 122.367 274.109C123.003 274.109 123.526 273.888 123.938 273.445C124.354 272.997 124.562 272.432 124.562 271.75V270.953ZM129.539 275H128.258V263.156H129.539V275ZM133.305 273.219L132.055 277.062H131.141L132.055 273.219H133.305ZM140.648 264.969C140.419 264.969 140.224 264.891 140.062 264.734C139.901 264.578 139.82 264.38 139.82 264.141C139.82 263.901 139.901 263.703 140.062 263.547C140.224 263.385 140.419 263.305 140.648 263.305C140.883 263.305 141.081 263.385 141.242 263.547C141.409 263.703 141.492 263.901 141.492 264.141C141.492 264.37 141.409 264.565 141.242 264.727C141.081 264.888 140.883 264.969 140.648 264.969ZM141.273 275H139.992V267H141.273V275ZM150.695 275H149.414V273.641H149.383C148.789 274.672 147.872 275.188 146.633 275.188C145.628 275.188 144.823 274.831 144.219 274.117C143.62 273.398 143.32 272.422 143.32 271.188C143.32 269.865 143.654 268.805 144.32 268.008C144.987 267.211 145.875 266.812 146.984 266.812C148.083 266.812 148.883 267.245 149.383 268.109H149.414V263.156H150.695V275ZM149.414 271.383V270.203C149.414 269.557 149.201 269.01 148.773 268.562C148.346 268.115 147.805 267.891 147.148 267.891C146.367 267.891 145.753 268.177 145.305 268.75C144.857 269.323 144.633 270.115 144.633 271.125C144.633 272.047 144.846 272.776 145.273 273.312C145.706 273.844 146.284 274.109 147.008 274.109C147.721 274.109 148.299 273.852 148.742 273.336C149.19 272.82 149.414 272.169 149.414 271.383ZM159.719 271.32H154.07C154.091 272.211 154.331 272.898 154.789 273.383C155.247 273.867 155.878 274.109 156.68 274.109C157.581 274.109 158.409 273.812 159.164 273.219V274.422C158.461 274.932 157.531 275.188 156.375 275.188C155.245 275.188 154.357 274.826 153.711 274.102C153.065 273.372 152.742 272.349 152.742 271.031C152.742 269.786 153.094 268.773 153.797 267.992C154.505 267.206 155.383 266.812 156.43 266.812C157.477 266.812 158.286 267.151 158.859 267.828C159.432 268.505 159.719 269.445 159.719 270.648V271.32ZM158.406 270.234C158.401 269.495 158.221 268.919 157.867 268.508C157.518 268.096 157.031 267.891 156.406 267.891C155.802 267.891 155.289 268.107 154.867 268.539C154.445 268.971 154.185 269.536 154.086 270.234H158.406ZM168.305 275H167.023V270.438C167.023 268.74 166.404 267.891 165.164 267.891C164.523 267.891 163.992 268.133 163.57 268.617C163.154 269.096 162.945 269.703 162.945 270.438V275H161.664V267H162.945V268.328H162.977C163.581 267.318 164.456 266.812 165.602 266.812C166.477 266.812 167.146 267.096 167.609 267.664C168.073 268.227 168.305 269.042 168.305 270.109V275ZM174.438 274.922C174.135 275.089 173.737 275.172 173.242 275.172C171.841 275.172 171.141 274.391 171.141 272.828V268.094H169.766V267H171.141V265.047L172.422 264.633V267H174.438V268.094H172.422V272.602C172.422 273.138 172.513 273.521 172.695 273.75C172.878 273.979 173.18 274.094 173.602 274.094C173.924 274.094 174.203 274.005 174.438 273.828V274.922ZM176.805 264.969C176.576 264.969 176.38 264.891 176.219 264.734C176.057 264.578 175.977 264.38 175.977 264.141C175.977 263.901 176.057 263.703 176.219 263.547C176.38 263.385 176.576 263.305 176.805 263.305C177.039 263.305 177.237 263.385 177.398 263.547C177.565 263.703 177.648 263.901 177.648 264.141C177.648 264.37 177.565 264.565 177.398 264.727C177.237 264.888 177.039 264.969 176.805 264.969ZM177.43 275H176.148V267H177.43V275ZM186.852 275H185.57V273.641H185.539C184.945 274.672 184.029 275.188 182.789 275.188C181.784 275.188 180.979 274.831 180.375 274.117C179.776 273.398 179.477 272.422 179.477 271.188C179.477 269.865 179.81 268.805 180.477 268.008C181.143 267.211 182.031 266.812 183.141 266.812C184.24 266.812 185.039 267.245 185.539 268.109H185.57V263.156H186.852V275ZM185.57 271.383V270.203C185.57 269.557 185.357 269.01 184.93 268.562C184.503 268.115 183.961 267.891 183.305 267.891C182.523 267.891 181.909 268.177 181.461 268.75C181.013 269.323 180.789 270.115 180.789 271.125C180.789 272.047 181.003 272.776 181.43 273.312C181.862 273.844 182.44 274.109 183.164 274.109C183.878 274.109 184.456 273.852 184.898 273.336C185.346 272.82 185.57 272.169 185.57 271.383ZM195.172 275H193.891V273.75H193.859C193.302 274.708 192.482 275.188 191.398 275.188C190.602 275.188 189.977 274.977 189.523 274.555C189.076 274.133 188.852 273.573 188.852 272.875C188.852 271.38 189.732 270.51 191.492 270.266L193.891 269.93C193.891 268.57 193.341 267.891 192.242 267.891C191.279 267.891 190.409 268.219 189.633 268.875V267.562C190.419 267.062 191.326 266.812 192.352 266.812C194.232 266.812 195.172 267.807 195.172 269.797V275ZM193.891 270.953L191.961 271.219C191.367 271.302 190.919 271.451 190.617 271.664C190.315 271.872 190.164 272.245 190.164 272.781C190.164 273.172 190.302 273.492 190.578 273.742C190.859 273.987 191.232 274.109 191.695 274.109C192.331 274.109 192.854 273.888 193.266 273.445C193.682 272.997 193.891 272.432 193.891 271.75V270.953ZM204.414 275H203.133V273.641H203.102C202.508 274.672 201.591 275.188 200.352 275.188C199.346 275.188 198.542 274.831 197.938 274.117C197.339 273.398 197.039 272.422 197.039 271.188C197.039 269.865 197.372 268.805 198.039 268.008C198.706 267.211 199.594 266.812 200.703 266.812C201.802 266.812 202.602 267.245 203.102 268.109H203.133V263.156H204.414V275ZM203.133 271.383V270.203C203.133 269.557 202.919 269.01 202.492 268.562C202.065 268.115 201.523 267.891 200.867 267.891C200.086 267.891 199.471 268.177 199.023 268.75C198.576 269.323 198.352 270.115 198.352 271.125C198.352 272.047 198.565 272.776 198.992 273.312C199.424 273.844 200.003 274.109 200.727 274.109C201.44 274.109 202.018 273.852 202.461 273.336C202.909 272.82 203.133 272.169 203.133 271.383ZM213.438 271.32H207.789C207.81 272.211 208.049 272.898 208.508 273.383C208.966 273.867 209.596 274.109 210.398 274.109C211.299 274.109 212.128 273.812 212.883 273.219V274.422C212.18 274.932 211.25 275.188 210.094 275.188C208.964 275.188 208.076 274.826 207.43 274.102C206.784 273.372 206.461 272.349 206.461 271.031C206.461 269.786 206.812 268.773 207.516 267.992C208.224 267.206 209.102 266.812 210.148 266.812C211.195 266.812 212.005 267.151 212.578 267.828C213.151 268.505 213.438 269.445 213.438 270.648V271.32ZM212.125 270.234C212.12 269.495 211.94 268.919 211.586 268.508C211.237 268.096 210.75 267.891 210.125 267.891C209.521 267.891 209.008 268.107 208.586 268.539C208.164 268.971 207.904 269.536 207.805 270.234H212.125ZM226.062 267L222.875 275H221.617L218.586 267H219.992L222.023 272.812C222.174 273.24 222.268 273.612 222.305 273.93H222.336C222.388 273.529 222.471 273.167 222.586 272.844L224.711 267H226.062ZM228.102 264.969C227.872 264.969 227.677 264.891 227.516 264.734C227.354 264.578 227.273 264.38 227.273 264.141C227.273 263.901 227.354 263.703 227.516 263.547C227.677 263.385 227.872 263.305 228.102 263.305C228.336 263.305 228.534 263.385 228.695 263.547C228.862 263.703 228.945 263.901 228.945 264.141C228.945 264.37 228.862 264.565 228.695 264.727C228.534 264.888 228.336 264.969 228.102 264.969ZM228.727 275H227.445V267H228.727V275ZM230.836 274.711V273.336C231.534 273.852 232.302 274.109 233.141 274.109C234.266 274.109 234.828 273.734 234.828 272.984C234.828 272.771 234.779 272.591 234.68 272.445C234.586 272.294 234.456 272.161 234.289 272.047C234.128 271.932 233.935 271.831 233.711 271.742C233.492 271.648 233.255 271.552 233 271.453C232.646 271.312 232.333 271.172 232.062 271.031C231.797 270.885 231.573 270.724 231.391 270.547C231.214 270.365 231.078 270.159 230.984 269.93C230.896 269.701 230.852 269.432 230.852 269.125C230.852 268.75 230.938 268.419 231.109 268.133C231.281 267.841 231.51 267.599 231.797 267.406C232.083 267.208 232.409 267.06 232.773 266.961C233.143 266.862 233.523 266.812 233.914 266.812C234.607 266.812 235.227 266.932 235.773 267.172V268.469C235.185 268.083 234.508 267.891 233.742 267.891C233.503 267.891 233.286 267.919 233.094 267.977C232.901 268.029 232.734 268.104 232.594 268.203C232.458 268.302 232.352 268.422 232.273 268.562C232.201 268.698 232.164 268.849 232.164 269.016C232.164 269.224 232.201 269.398 232.273 269.539C232.352 269.68 232.464 269.805 232.609 269.914C232.755 270.023 232.932 270.122 233.141 270.211C233.349 270.299 233.586 270.396 233.852 270.5C234.206 270.635 234.523 270.776 234.805 270.922C235.086 271.062 235.326 271.224 235.523 271.406C235.721 271.583 235.872 271.789 235.977 272.023C236.086 272.258 236.141 272.536 236.141 272.859C236.141 273.255 236.052 273.599 235.875 273.891C235.703 274.182 235.471 274.424 235.18 274.617C234.888 274.81 234.552 274.953 234.172 275.047C233.792 275.141 233.393 275.188 232.977 275.188C232.154 275.188 231.44 275.029 230.836 274.711ZM244.586 275H243.305V273.734H243.273C242.742 274.703 241.919 275.188 240.805 275.188C238.898 275.188 237.945 274.052 237.945 271.781V267H239.219V271.578C239.219 273.266 239.865 274.109 241.156 274.109C241.781 274.109 242.294 273.88 242.695 273.422C243.102 272.958 243.305 272.354 243.305 271.609V267H244.586V275ZM252.906 275H251.625V273.75H251.594C251.036 274.708 250.216 275.188 249.133 275.188C248.336 275.188 247.711 274.977 247.258 274.555C246.81 274.133 246.586 273.573 246.586 272.875C246.586 271.38 247.466 270.51 249.227 270.266L251.625 269.93C251.625 268.57 251.076 267.891 249.977 267.891C249.013 267.891 248.143 268.219 247.367 268.875V267.562C248.154 267.062 249.06 266.812 250.086 266.812C251.966 266.812 252.906 267.807 252.906 269.797V275ZM251.625 270.953L249.695 271.219C249.102 271.302 248.654 271.451 248.352 271.664C248.049 271.872 247.898 272.245 247.898 272.781C247.898 273.172 248.036 273.492 248.312 273.742C248.594 273.987 248.966 274.109 249.43 274.109C250.065 274.109 250.589 273.888 251 273.445C251.417 272.997 251.625 272.432 251.625 271.75V270.953ZM256.602 275H255.32V263.156H256.602V275ZM260.367 273.219L259.117 277.062H258.203L259.117 273.219H260.367ZM53.0781 296H51.7969V284.156H53.0781V296ZM61.3984 296H60.1172V294.75H60.0859C59.5286 295.708 58.7083 296.188 57.625 296.188C56.8281 296.188 56.2031 295.977 55.75 295.555C55.3021 295.133 55.0781 294.573 55.0781 293.875C55.0781 292.38 55.9583 291.51 57.7188 291.266L60.1172 290.93C60.1172 289.57 59.5677 288.891 58.4688 288.891C57.5052 288.891 56.6354 289.219 55.8594 289.875V288.562C56.6458 288.062 57.5521 287.812 58.5781 287.812C60.4583 287.812 61.3984 288.807 61.3984 290.797V296ZM60.1172 291.953L58.1875 292.219C57.5938 292.302 57.1458 292.451 56.8438 292.664C56.5417 292.872 56.3906 293.245 56.3906 293.781C56.3906 294.172 56.5286 294.492 56.8047 294.742C57.0859 294.987 57.4583 295.109 57.9219 295.109C58.5573 295.109 59.0807 294.888 59.4922 294.445C59.9089 293.997 60.1172 293.432 60.1172 292.75V291.953ZM70.1797 288L66.5 297.281C65.8438 298.938 64.9219 299.766 63.7344 299.766C63.401 299.766 63.1224 299.732 62.8984 299.664V298.516C63.1745 298.609 63.4271 298.656 63.6562 298.656C64.3021 298.656 64.7865 298.271 65.1094 297.5L65.75 295.984L62.625 288H64.0469L66.2109 294.156C66.237 294.234 66.2917 294.438 66.375 294.766H66.4219C66.4479 294.641 66.5 294.443 66.5781 294.172L68.8516 288H70.1797ZM74.9062 296.188C73.724 296.188 72.7786 295.815 72.0703 295.07C71.3672 294.32 71.0156 293.328 71.0156 292.094C71.0156 290.75 71.3828 289.701 72.1172 288.945C72.8516 288.19 73.8438 287.812 75.0938 287.812C76.2865 287.812 77.2161 288.18 77.8828 288.914C78.5547 289.648 78.8906 290.667 78.8906 291.969C78.8906 293.245 78.5286 294.268 77.8047 295.039C77.0859 295.805 76.1198 296.188 74.9062 296.188ZM75 288.891C74.1771 288.891 73.526 289.172 73.0469 289.734C72.5677 290.292 72.3281 291.062 72.3281 292.047C72.3281 292.995 72.5703 293.742 73.0547 294.289C73.5391 294.836 74.1875 295.109 75 295.109C75.8281 295.109 76.4635 294.841 76.9062 294.305C77.3542 293.768 77.5781 293.005 77.5781 292.016C77.5781 291.016 77.3542 290.245 76.9062 289.703C76.4635 289.161 75.8281 288.891 75 288.891ZM87.4062 296H86.125V294.734H86.0938C85.5625 295.703 84.7396 296.188 83.625 296.188C81.7188 296.188 80.7656 295.052 80.7656 292.781V288H82.0391V292.578C82.0391 294.266 82.6849 295.109 83.9766 295.109C84.6016 295.109 85.1146 294.88 85.5156 294.422C85.9219 293.958 86.125 293.354 86.125 292.609V288H87.4062V296ZM93.7109 295.922C93.4089 296.089 93.0104 296.172 92.5156 296.172C91.1146 296.172 90.4141 295.391 90.4141 293.828V289.094H89.0391V288H90.4141V286.047L91.6953 285.633V288H93.7109V289.094H91.6953V293.602C91.6953 294.138 91.7865 294.521 91.9688 294.75C92.151 294.979 92.4531 295.094 92.875 295.094C93.1979 295.094 93.4766 295.005 93.7109 294.828V295.922ZM96.5938 294.219L95.3438 298.062H94.4297L95.3438 294.219H96.5938ZM106.992 295.922C106.69 296.089 106.292 296.172 105.797 296.172C104.396 296.172 103.695 295.391 103.695 293.828V289.094H102.32V288H103.695V286.047L104.977 285.633V288H106.992V289.094H104.977V293.602C104.977 294.138 105.068 294.521 105.25 294.75C105.432 294.979 105.734 295.094 106.156 295.094C106.479 295.094 106.758 295.005 106.992 294.828V295.922ZM109.359 285.969C109.13 285.969 108.935 285.891 108.773 285.734C108.612 285.578 108.531 285.38 108.531 285.141C108.531 284.901 108.612 284.703 108.773 284.547C108.935 284.385 109.13 284.305 109.359 284.305C109.594 284.305 109.792 284.385 109.953 284.547C110.12 284.703 110.203 284.901 110.203 285.141C110.203 285.37 110.12 285.565 109.953 285.727C109.792 285.888 109.594 285.969 109.359 285.969ZM109.984 296H108.703V288H109.984V296ZM113.891 294.844H113.859V299.68H112.578V288H113.859V289.406H113.891C114.521 288.344 115.443 287.812 116.656 287.812C117.688 287.812 118.492 288.172 119.07 288.891C119.648 289.604 119.938 290.562 119.938 291.766C119.938 293.104 119.612 294.177 118.961 294.984C118.31 295.786 117.419 296.188 116.289 296.188C115.253 296.188 114.453 295.74 113.891 294.844ZM113.859 291.617V292.734C113.859 293.396 114.073 293.958 114.5 294.422C114.932 294.88 115.479 295.109 116.141 295.109C116.917 295.109 117.523 294.812 117.961 294.219C118.404 293.625 118.625 292.799 118.625 291.742C118.625 290.852 118.419 290.154 118.008 289.648C117.596 289.143 117.039 288.891 116.336 288.891C115.591 288.891 114.992 289.151 114.539 289.672C114.086 290.188 113.859 290.836 113.859 291.617ZM125.328 296.188C124.146 296.188 123.201 295.815 122.492 295.07C121.789 294.32 121.438 293.328 121.438 292.094C121.438 290.75 121.805 289.701 122.539 288.945C123.273 288.19 124.266 287.812 125.516 287.812C126.708 287.812 127.638 288.18 128.305 288.914C128.977 289.648 129.312 290.667 129.312 291.969C129.312 293.245 128.951 294.268 128.227 295.039C127.508 295.805 126.542 296.188 125.328 296.188ZM125.422 288.891C124.599 288.891 123.948 289.172 123.469 289.734C122.99 290.292 122.75 291.062 122.75 292.047C122.75 292.995 122.992 293.742 123.477 294.289C123.961 294.836 124.609 295.109 125.422 295.109C126.25 295.109 126.885 294.841 127.328 294.305C127.776 293.768 128 293.005 128 292.016C128 291.016 127.776 290.245 127.328 289.703C126.885 289.161 126.25 288.891 125.422 288.891ZM138.188 295.359C138.188 298.297 136.781 299.766 133.969 299.766C132.979 299.766 132.115 299.578 131.375 299.203V297.922C132.276 298.422 133.135 298.672 133.953 298.672C135.922 298.672 136.906 297.625 136.906 295.531V294.656H136.875C136.266 295.677 135.349 296.188 134.125 296.188C133.13 296.188 132.328 295.833 131.719 295.125C131.115 294.411 130.812 293.456 130.812 292.258C130.812 290.898 131.138 289.818 131.789 289.016C132.445 288.214 133.341 287.812 134.477 287.812C135.555 287.812 136.354 288.245 136.875 289.109H136.906V288H138.188V295.359ZM136.906 292.383V291.203C136.906 290.568 136.69 290.023 136.258 289.57C135.831 289.117 135.297 288.891 134.656 288.891C133.865 288.891 133.245 289.18 132.797 289.758C132.349 290.331 132.125 291.135 132.125 292.172C132.125 293.062 132.339 293.776 132.766 294.312C133.198 294.844 133.768 295.109 134.477 295.109C135.195 295.109 135.779 294.854 136.227 294.344C136.68 293.833 136.906 293.18 136.906 292.383ZM144.953 289.297C144.729 289.125 144.406 289.039 143.984 289.039C143.438 289.039 142.979 289.297 142.609 289.812C142.245 290.328 142.062 291.031 142.062 291.922V296H140.781V288H142.062V289.648H142.094C142.276 289.086 142.555 288.648 142.93 288.336C143.305 288.018 143.724 287.859 144.188 287.859C144.521 287.859 144.776 287.896 144.953 287.969V289.297ZM152.07 296H150.789V294.75H150.758C150.201 295.708 149.38 296.188 148.297 296.188C147.5 296.188 146.875 295.977 146.422 295.555C145.974 295.133 145.75 294.573 145.75 293.875C145.75 292.38 146.63 291.51 148.391 291.266L150.789 290.93C150.789 289.57 150.24 288.891 149.141 288.891C148.177 288.891 147.307 289.219 146.531 289.875V288.562C147.318 288.062 148.224 287.812 149.25 287.812C151.13 287.812 152.07 288.807 152.07 290.797V296ZM150.789 291.953L148.859 292.219C148.266 292.302 147.818 292.451 147.516 292.664C147.214 292.872 147.062 293.245 147.062 293.781C147.062 294.172 147.201 294.492 147.477 294.742C147.758 294.987 148.13 295.109 148.594 295.109C149.229 295.109 149.753 294.888 150.164 294.445C150.581 293.997 150.789 293.432 150.789 292.75V291.953ZM158.438 285.281C158.188 285.141 157.904 285.07 157.586 285.07C156.69 285.07 156.242 285.635 156.242 286.766V288H158.117V289.094H156.242V296H154.969V289.094H153.602V288H154.969V286.703C154.969 285.865 155.211 285.203 155.695 284.719C156.18 284.229 156.784 283.984 157.508 283.984C157.898 283.984 158.208 284.031 158.438 284.125V285.281ZM160.156 285.969C159.927 285.969 159.732 285.891 159.57 285.734C159.409 285.578 159.328 285.38 159.328 285.141C159.328 284.901 159.409 284.703 159.57 284.547C159.732 284.385 159.927 284.305 160.156 284.305C160.391 284.305 160.589 284.385 160.75 284.547C160.917 284.703 161 284.901 161 285.141C161 285.37 160.917 285.565 160.75 285.727C160.589 285.888 160.391 285.969 160.156 285.969ZM160.781 296H159.5V288H160.781V296ZM169.102 296H167.82V294.75H167.789C167.232 295.708 166.411 296.188 165.328 296.188C164.531 296.188 163.906 295.977 163.453 295.555C163.005 295.133 162.781 294.573 162.781 293.875C162.781 292.38 163.661 291.51 165.422 291.266L167.82 290.93C167.82 289.57 167.271 288.891 166.172 288.891C165.208 288.891 164.339 289.219 163.562 289.875V288.562C164.349 288.062 165.255 287.812 166.281 287.812C168.161 287.812 169.102 288.807 169.102 290.797V296ZM167.82 291.953L165.891 292.219C165.297 292.302 164.849 292.451 164.547 292.664C164.245 292.872 164.094 293.245 164.094 293.781C164.094 294.172 164.232 294.492 164.508 294.742C164.789 294.987 165.161 295.109 165.625 295.109C166.26 295.109 166.784 294.888 167.195 294.445C167.612 293.997 167.82 293.432 167.82 292.75V291.953ZM172.688 294.219L171.438 298.062H170.523L171.438 294.219H172.688ZM180.688 294.844H180.656V296H179.375V284.156H180.656V289.406H180.688C181.318 288.344 182.24 287.812 183.453 287.812C184.479 287.812 185.281 288.172 185.859 288.891C186.443 289.604 186.734 290.562 186.734 291.766C186.734 293.104 186.409 294.177 185.758 294.984C185.107 295.786 184.216 296.188 183.086 296.188C182.029 296.188 181.229 295.74 180.688 294.844ZM180.656 291.617V292.734C180.656 293.396 180.87 293.958 181.297 294.422C181.729 294.88 182.276 295.109 182.938 295.109C183.714 295.109 184.32 294.812 184.758 294.219C185.201 293.625 185.422 292.799 185.422 291.742C185.422 290.852 185.216 290.154 184.805 289.648C184.393 289.143 183.836 288.891 183.133 288.891C182.388 288.891 181.789 289.151 181.336 289.672C180.883 290.188 180.656 290.836 180.656 291.617ZM192.953 289.297C192.729 289.125 192.406 289.039 191.984 289.039C191.438 289.039 190.979 289.297 190.609 289.812C190.245 290.328 190.062 291.031 190.062 291.922V296H188.781V288H190.062V289.648H190.094C190.276 289.086 190.555 288.648 190.93 288.336C191.305 288.018 191.724 287.859 192.188 287.859C192.521 287.859 192.776 287.896 192.953 287.969V289.297ZM200.07 296H198.789V294.75H198.758C198.201 295.708 197.38 296.188 196.297 296.188C195.5 296.188 194.875 295.977 194.422 295.555C193.974 295.133 193.75 294.573 193.75 293.875C193.75 292.38 194.63 291.51 196.391 291.266L198.789 290.93C198.789 289.57 198.24 288.891 197.141 288.891C196.177 288.891 195.307 289.219 194.531 289.875V288.562C195.318 288.062 196.224 287.812 197.25 287.812C199.13 287.812 200.07 288.807 200.07 290.797V296ZM198.789 291.953L196.859 292.219C196.266 292.302 195.818 292.451 195.516 292.664C195.214 292.872 195.062 293.245 195.062 293.781C195.062 294.172 195.201 294.492 195.477 294.742C195.758 294.987 196.13 295.109 196.594 295.109C197.229 295.109 197.753 294.888 198.164 294.445C198.581 293.997 198.789 293.432 198.789 292.75V291.953ZM209.125 296H207.844V291.438C207.844 289.74 207.224 288.891 205.984 288.891C205.344 288.891 204.812 289.133 204.391 289.617C203.974 290.096 203.766 290.703 203.766 291.438V296H202.484V288H203.766V289.328H203.797C204.401 288.318 205.276 287.812 206.422 287.812C207.297 287.812 207.966 288.096 208.43 288.664C208.893 289.227 209.125 290.042 209.125 291.109V296ZM218.375 296H217.094V294.641H217.062C216.469 295.672 215.552 296.188 214.312 296.188C213.307 296.188 212.503 295.831 211.898 295.117C211.299 294.398 211 293.422 211 292.188C211 290.865 211.333 289.805 212 289.008C212.667 288.211 213.555 287.812 214.664 287.812C215.763 287.812 216.562 288.245 217.062 289.109H217.094V284.156H218.375V296ZM217.094 292.383V291.203C217.094 290.557 216.88 290.01 216.453 289.562C216.026 289.115 215.484 288.891 214.828 288.891C214.047 288.891 213.432 289.177 212.984 289.75C212.536 290.323 212.312 291.115 212.312 292.125C212.312 293.047 212.526 293.776 212.953 294.312C213.385 294.844 213.964 295.109 214.688 295.109C215.401 295.109 215.979 294.852 216.422 294.336C216.87 293.82 217.094 293.169 217.094 292.383ZM221.625 285.969C221.396 285.969 221.201 285.891 221.039 285.734C220.878 285.578 220.797 285.38 220.797 285.141C220.797 284.901 220.878 284.703 221.039 284.547C221.201 284.385 221.396 284.305 221.625 284.305C221.859 284.305 222.057 284.385 222.219 284.547C222.385 284.703 222.469 284.901 222.469 285.141C222.469 285.37 222.385 285.565 222.219 285.727C222.057 285.888 221.859 285.969 221.625 285.969ZM222.25 296H220.969V288H222.25V296ZM231.484 296H230.203V291.438C230.203 289.74 229.583 288.891 228.344 288.891C227.703 288.891 227.172 289.133 226.75 289.617C226.333 290.096 226.125 290.703 226.125 291.438V296H224.844V288H226.125V289.328H226.156C226.76 288.318 227.635 287.812 228.781 287.812C229.656 287.812 230.326 288.096 230.789 288.664C231.253 289.227 231.484 290.042 231.484 291.109V296ZM240.734 295.359C240.734 298.297 239.328 299.766 236.516 299.766C235.526 299.766 234.661 299.578 233.922 299.203V297.922C234.823 298.422 235.682 298.672 236.5 298.672C238.469 298.672 239.453 297.625 239.453 295.531V294.656H239.422C238.812 295.677 237.896 296.188 236.672 296.188C235.677 296.188 234.875 295.833 234.266 295.125C233.661 294.411 233.359 293.456 233.359 292.258C233.359 290.898 233.685 289.818 234.336 289.016C234.992 288.214 235.888 287.812 237.023 287.812C238.102 287.812 238.901 288.245 239.422 289.109H239.453V288H240.734V295.359ZM239.453 292.383V291.203C239.453 290.568 239.237 290.023 238.805 289.57C238.378 289.117 237.844 288.891 237.203 288.891C236.411 288.891 235.792 289.18 235.344 289.758C234.896 290.331 234.672 291.135 234.672 292.172C234.672 293.062 234.885 293.776 235.312 294.312C235.745 294.844 236.315 295.109 237.023 295.109C237.742 295.109 238.326 294.854 238.773 294.344C239.227 293.833 239.453 293.18 239.453 292.383ZM244.5 294.219L243.25 298.062H242.336L243.25 294.219H244.5ZM114.398 306.969C114.169 306.969 113.974 306.891 113.812 306.734C113.651 306.578 113.57 306.38 113.57 306.141C113.57 305.901 113.651 305.703 113.812 305.547C113.974 305.385 114.169 305.305 114.398 305.305C114.633 305.305 114.831 305.385 114.992 305.547C115.159 305.703 115.242 305.901 115.242 306.141C115.242 306.37 115.159 306.565 114.992 306.727C114.831 306.888 114.633 306.969 114.398 306.969ZM115.023 317H113.742V309H115.023V317ZM118.898 317H117.617V305.156H118.898V317ZM127.961 317H126.68V315.734H126.648C126.117 316.703 125.294 317.188 124.18 317.188C122.273 317.188 121.32 316.052 121.32 313.781V309H122.594V313.578C122.594 315.266 123.24 316.109 124.531 316.109C125.156 316.109 125.669 315.88 126.07 315.422C126.477 314.958 126.68 314.354 126.68 313.609V309H127.961V317ZM130.07 316.711V315.336C130.768 315.852 131.536 316.109 132.375 316.109C133.5 316.109 134.062 315.734 134.062 314.984C134.062 314.771 134.013 314.591 133.914 314.445C133.82 314.294 133.69 314.161 133.523 314.047C133.362 313.932 133.169 313.831 132.945 313.742C132.727 313.648 132.49 313.552 132.234 313.453C131.88 313.312 131.568 313.172 131.297 313.031C131.031 312.885 130.807 312.724 130.625 312.547C130.448 312.365 130.312 312.159 130.219 311.93C130.13 311.701 130.086 311.432 130.086 311.125C130.086 310.75 130.172 310.419 130.344 310.133C130.516 309.841 130.745 309.599 131.031 309.406C131.318 309.208 131.643 309.06 132.008 308.961C132.378 308.862 132.758 308.812 133.148 308.812C133.841 308.812 134.461 308.932 135.008 309.172V310.469C134.419 310.083 133.742 309.891 132.977 309.891C132.737 309.891 132.521 309.919 132.328 309.977C132.135 310.029 131.969 310.104 131.828 310.203C131.693 310.302 131.586 310.422 131.508 310.562C131.435 310.698 131.398 310.849 131.398 311.016C131.398 311.224 131.435 311.398 131.508 311.539C131.586 311.68 131.698 311.805 131.844 311.914C131.99 312.023 132.167 312.122 132.375 312.211C132.583 312.299 132.82 312.396 133.086 312.5C133.44 312.635 133.758 312.776 134.039 312.922C134.32 313.062 134.56 313.224 134.758 313.406C134.956 313.583 135.107 313.789 135.211 314.023C135.32 314.258 135.375 314.536 135.375 314.859C135.375 315.255 135.286 315.599 135.109 315.891C134.938 316.182 134.706 316.424 134.414 316.617C134.122 316.81 133.786 316.953 133.406 317.047C133.026 317.141 132.628 317.188 132.211 317.188C131.388 317.188 130.674 317.029 130.07 316.711ZM141.062 316.922C140.76 317.089 140.362 317.172 139.867 317.172C138.466 317.172 137.766 316.391 137.766 314.828V310.094H136.391V309H137.766V307.047L139.047 306.633V309H141.062V310.094H139.047V314.602C139.047 315.138 139.138 315.521 139.32 315.75C139.503 315.979 139.805 316.094 140.227 316.094C140.549 316.094 140.828 316.005 141.062 315.828V316.922ZM146.945 310.297C146.721 310.125 146.398 310.039 145.977 310.039C145.43 310.039 144.971 310.297 144.602 310.812C144.237 311.328 144.055 312.031 144.055 312.922V317H142.773V309H144.055V310.648H144.086C144.268 310.086 144.547 309.648 144.922 309.336C145.297 309.018 145.716 308.859 146.18 308.859C146.513 308.859 146.768 308.896 146.945 308.969V310.297ZM154.062 317H152.781V315.75H152.75C152.193 316.708 151.372 317.188 150.289 317.188C149.492 317.188 148.867 316.977 148.414 316.555C147.966 316.133 147.742 315.573 147.742 314.875C147.742 313.38 148.622 312.51 150.383 312.266L152.781 311.93C152.781 310.57 152.232 309.891 151.133 309.891C150.169 309.891 149.299 310.219 148.523 310.875V309.562C149.31 309.062 150.216 308.812 151.242 308.812C153.122 308.812 154.062 309.807 154.062 311.797V317ZM152.781 312.953L150.852 313.219C150.258 313.302 149.81 313.451 149.508 313.664C149.206 313.872 149.055 314.245 149.055 314.781C149.055 315.172 149.193 315.492 149.469 315.742C149.75 315.987 150.122 316.109 150.586 316.109C151.221 316.109 151.745 315.888 152.156 315.445C152.573 314.997 152.781 314.432 152.781 313.75V312.953ZM161.93 316.633C161.315 317.003 160.586 317.188 159.742 317.188C158.602 317.188 157.68 316.818 156.977 316.078C156.279 315.333 155.93 314.37 155.93 313.188C155.93 311.87 156.307 310.812 157.062 310.016C157.818 309.214 158.826 308.812 160.086 308.812C160.789 308.812 161.409 308.943 161.945 309.203V310.516C161.352 310.099 160.716 309.891 160.039 309.891C159.221 309.891 158.549 310.185 158.023 310.773C157.503 311.357 157.242 312.125 157.242 313.078C157.242 314.016 157.487 314.755 157.977 315.297C158.471 315.839 159.133 316.109 159.961 316.109C160.659 316.109 161.315 315.878 161.93 315.414V316.633ZM161.258 319C161.258 319.917 160.542 320.375 159.109 320.375C158.911 320.375 158.742 320.37 158.602 320.359V319.656C158.826 319.688 159.008 319.703 159.148 319.703C159.883 319.703 160.25 319.469 160.25 319C160.25 318.594 159.914 318.391 159.242 318.391C159.19 318.391 159.083 318.401 158.922 318.422V317H159.766V317.812C160.224 317.812 160.586 317.917 160.852 318.125C161.122 318.333 161.258 318.625 161.258 319ZM169.594 317H168.312V315.75H168.281C167.724 316.708 166.904 317.188 165.82 317.188C165.023 317.188 164.398 316.977 163.945 316.555C163.497 316.133 163.273 315.573 163.273 314.875C163.273 313.38 164.154 312.51 165.914 312.266L168.312 311.93C168.312 310.57 167.763 309.891 166.664 309.891C165.701 309.891 164.831 310.219 164.055 310.875V309.562C164.841 309.062 165.747 308.812 166.773 308.812C168.654 308.812 169.594 309.807 169.594 311.797V317ZM168.312 312.953L166.383 313.219C165.789 313.302 165.341 313.451 165.039 313.664C164.737 313.872 164.586 314.245 164.586 314.781C164.586 315.172 164.724 315.492 165 315.742C165.281 315.987 165.654 316.109 166.117 316.109C166.753 316.109 167.276 315.888 167.688 315.445C168.104 314.997 168.312 314.432 168.312 313.75V312.953ZM169.164 305.609C169.164 306.156 169.039 306.604 168.789 306.953C168.539 307.297 168.201 307.469 167.773 307.469C167.404 307.469 166.982 307.333 166.508 307.062C166.107 306.839 165.797 306.727 165.578 306.727C165.12 306.727 164.891 307.021 164.891 307.609H164.156C164.156 307.052 164.281 306.607 164.531 306.273C164.781 305.935 165.13 305.766 165.578 305.766C165.917 305.766 166.305 305.901 166.742 306.172C167.128 306.401 167.461 306.516 167.742 306.516C168.18 306.516 168.398 306.214 168.398 305.609H169.164ZM175.352 317.188C174.169 317.188 173.224 316.815 172.516 316.07C171.812 315.32 171.461 314.328 171.461 313.094C171.461 311.75 171.828 310.701 172.562 309.945C173.297 309.19 174.289 308.812 175.539 308.812C176.732 308.812 177.661 309.18 178.328 309.914C179 310.648 179.336 311.667 179.336 312.969C179.336 314.245 178.974 315.268 178.25 316.039C177.531 316.805 176.565 317.188 175.352 317.188ZM175.445 309.891C174.622 309.891 173.971 310.172 173.492 310.734C173.013 311.292 172.773 312.062 172.773 313.047C172.773 313.995 173.016 314.742 173.5 315.289C173.984 315.836 174.633 316.109 175.445 316.109C176.273 316.109 176.909 315.841 177.352 315.305C177.799 314.768 178.023 314.005 178.023 313.016C178.023 312.016 177.799 311.245 177.352 310.703C176.909 310.161 176.273 309.891 175.445 309.891ZM181.828 317.172C181.589 317.172 181.383 317.086 181.211 316.914C181.044 316.742 180.961 316.536 180.961 316.297C180.961 316.057 181.044 315.852 181.211 315.68C181.383 315.503 181.589 315.414 181.828 315.414C182.073 315.414 182.281 315.503 182.453 315.68C182.625 315.852 182.711 316.057 182.711 316.297C182.711 316.536 182.625 316.742 182.453 316.914C182.281 317.086 182.073 317.172 181.828 317.172Z" fill="#535353"/>
</g>
<defs>
<filter id="filter0_d_3_53" x="0" y="0" width="296" height="346" filterUnits="userSpaceOnUse" color-interpolation-filters="sRGB">
<feFlood flood-opacity="0" result="BackgroundImageFix"/>
<feColorMatrix in="SourceAlpha" type="matrix" values="0 0 0 0 0 0 0 0 0 0 0 0 0 0 0 0 0 0 127 0" result="hardAlpha"/>
<feOffset dx="2" dy="2"/>
<feGaussianBlur stdDeviation="2"/>
<feComposite in2="hardAlpha" operator="out"/>
<feColorMatrix type="matrix" values="0 0 0 0 0 0 0 0 0 0 0 0 0 0 0 0 0 0 0.25 0"/>
<feBlend mode="normal" in2="BackgroundImageFix" result="effect1_dropShadow_3_53"/>
<feBlend mode="normal" in="SourceGraphic" in2="effect1_dropShadow_3_53" result="shape"/>
</filter>
<filter id="filter1_d_3_53" x="97" y="54" width="98" height="104.545" filterUnits="userSpaceOnUse" color-interpolation-filters="sRGB">
<feFlood flood-opacity="0" result="BackgroundImageFix"/>
<feColorMatrix in="SourceAlpha" type="matrix" values="0 0 0 0 0 0 0 0 0 0 0 0 0 0 0 0 0 0 127 0" result="hardAlpha"/>
<feOffset dy="4"/>
<feGaussianBlur stdDeviation="2"/>
<feComposite in2="hardAlpha" operator="out"/>
<feColorMatrix type="matrix" values="0 0 0 0 0 0 0 0 0 0 0 0 0 0 0 0 0 0 0.25 0"/>
<feBlend mode="normal" in2="BackgroundImageFix" result="effect1_dropShadow_3_53"/>
<feBlend mode="normal" in="SourceGraphic" in2="effect1_dropShadow_3_53" result="shape"/>
</filter>
<filter id="filter2_f_3_53" x="235" y="0" width="174" height="151" filterUnits="userSpaceOnUse" color-interpolation-filters="sRGB">
<feFlood flood-opacity="0" result="BackgroundImageFix"/>
<feBlend mode="normal" in="SourceGraphic" in2="BackgroundImageFix" result="shape"/>
<feGaussianBlur stdDeviation="12.5" result="effect1_foregroundBlur_3_53"/>
</filter>
<filter id="filter3_f_3_53" x="121" y="177" width="250.795" height="214.121" filterUnits="userSpaceOnUse" color-interpolation-filters="sRGB">
<feFlood flood-opacity="0" result="BackgroundImageFix"/>
<feBlend mode="normal" in="SourceGraphic" in2="BackgroundImageFix" result="shape"/>
<feGaussianBlur stdDeviation="12.5" result="effect1_foregroundBlur_3_53"/>
</filter>
<filter id="filter4_f_3_53" x="-121.222" y="144.105" width="184.77" height="258.285" filterUnits="userSpaceOnUse" color-interpolation-filters="sRGB">
<feFlood flood-opacity="0" result="BackgroundImageFix"/>
<feBlend mode="normal" in="SourceGraphic" in2="BackgroundImageFix" result="shape"/>
<feGaussianBlur stdDeviation="12.5" result="effect1_foregroundBlur_3_53"/>
</filter>
<filter id="filter5_f_3_53" x="-215" y="-23" width="250.795" height="214.121" filterUnits="userSpaceOnUse" color-interpolation-filters="sRGB">
<feFlood flood-opacity="0" result="BackgroundImageFix"/>
<feBlend mode="normal" in="SourceGraphic" in2="BackgroundImageFix" result="shape"/>
<feGaussianBlur stdDeviation="12.5" result="effect1_foregroundBlur_3_53"/>
</filter>
<linearGradient id="paint0_linear_3_53" x1="111.35" y1="141.374" x2="187.399" y2="70.9287" gradientUnits="userSpaceOnUse">
<stop stop-color="#BF2838"/>
<stop offset="0.505" stop-color="#D54A18"/>
<stop offset="1" stop-color="#E78316"/>
</linearGradient>
<linearGradient id="paint1_linear_3_53" x1="322" y1="25" x2="322" y2="126" gradientUnits="userSpaceOnUse">
<stop stop-color="#FF5D5A"/>
<stop offset="0.67" stop-color="#FF9855"/>
<stop offset="1" stop-color="#FFC771"/>
</linearGradient>
<linearGradient id="paint2_linear_3_53" x1="246.398" y1="202" x2="246.398" y2="366.121" gradientUnits="userSpaceOnUse">
<stop stop-color="#FF5D5A"/>
<stop offset="0.67" stop-color="#FF9855"/>
<stop offset="1" stop-color="#FFC771"/>
</linearGradient>
<linearGradient id="paint3_linear_3_53" x1="10.9266" y1="331.454" x2="-97.7872" y2="208.504" gradientUnits="userSpaceOnUse">
<stop stop-color="#60D6FF"/>
<stop offset="0.67" stop-color="#5E82FF"/>
<stop offset="1" stop-color="#6C36FF"/>
</linearGradient>
<linearGradient id="paint4_linear_3_53" x1="-89.6023" y1="2" x2="-89.6023" y2="166.121" gradientUnits="userSpaceOnUse">
<stop stop-color="#4F9F79"/>
<stop offset="0.67" stop-color="#AAFD72"/>
<stop offset="1" stop-color="#A9FAED"/>
</linearGradient>
<clipPath id="clip0_3_53">
<path d="M2 2H290V202H2V2Z" fill="white"/>
</clipPath>
</defs>
</svg>
